<svg width="354" height="158" viewBox="0 0 354 158" fill="none" xmlns="http://www.w3.org/2000/svg">
<rect x="2" y="2" width="350" height="154" fill="#F7FFEC" stroke="#74BB8F" stroke-width="4"/>
<path d="M50.6847 39.5H46.017C45.741 38.1574 45.2579 36.978 44.5678 35.9616C43.8903 34.9453 43.0621 34.0921 42.0835 33.402C41.1173 32.6993 40.0445 32.1723 38.8651 31.821C37.6856 31.4697 36.456 31.294 35.1761 31.294C32.8423 31.294 30.7281 31.8838 28.8335 33.0632C26.9513 34.2427 25.4519 35.9805 24.3352 38.2766C23.2311 40.5728 22.679 43.3897 22.679 46.7273C22.679 50.0649 23.2311 52.8817 24.3352 55.1779C25.4519 57.4741 26.9513 59.2119 28.8335 60.3913C30.7281 61.5708 32.8423 62.1605 35.1761 62.1605C36.456 62.1605 37.6856 61.9848 38.8651 61.6335C40.0445 61.2822 41.1173 60.7615 42.0835 60.0714C43.0621 59.3687 43.8903 58.5092 44.5678 57.4929C45.2579 56.464 45.741 55.2846 46.017 53.9545H50.6847C50.3333 55.9245 49.6934 57.6874 48.7649 59.2433C47.8364 60.7991 46.6821 62.1229 45.3018 63.2145C43.9216 64.2936 42.372 65.1154 40.6531 65.68C38.9466 66.2447 37.121 66.527 35.1761 66.527C31.8887 66.527 28.9652 65.724 26.4055 64.1179C23.8459 62.5118 21.832 60.2282 20.364 57.267C18.896 54.3059 18.1619 50.7926 18.1619 46.7273C18.1619 42.6619 18.896 39.1487 20.364 36.1875C21.832 33.2263 23.8459 30.9427 26.4055 29.3366C28.9652 27.7306 31.8887 26.9276 35.1761 26.9276C37.121 26.9276 38.9466 27.2099 40.6531 27.7745C42.372 28.3391 43.9216 29.1673 45.3018 30.2589C46.6821 31.3379 47.8364 32.6554 48.7649 34.2113C49.6934 35.7546 50.3333 37.5175 50.6847 39.5ZM58.2272 66V27.4545H81.49V31.5952H62.8948V44.6193H80.2854V48.7599H62.8948V61.8594H81.7911V66H58.2272ZM89.903 27.4545H95.474L108.573 59.4503H109.025L122.125 27.4545H127.696V66H123.329V36.7145H122.953L110.907 66H106.691L94.6459 36.7145H94.2694V66H89.903V27.4545ZM140.517 43.6406H151.509C154.269 43.6406 156.597 44.0923 158.491 44.9957C160.399 45.8991 161.842 47.1727 162.82 48.8164C163.812 50.4601 164.307 52.3987 164.307 54.6321C164.307 56.8655 163.812 58.8355 162.82 60.5419C161.842 62.2483 160.399 63.5846 158.491 64.5508C156.597 65.5169 154.269 66 151.509 66H137.054V27.4545H141.722V61.9347H151.509C153.266 61.9347 154.752 61.5833 155.969 60.8807C157.199 60.1655 158.128 59.2495 158.755 58.1328C159.395 57.0036 159.715 55.8116 159.715 54.5568C159.715 52.7124 159.006 51.1251 157.588 49.7951C156.17 48.4525 154.144 47.7812 151.509 47.7812H140.517V43.6406Z" fill="#74BB8F"/>
<path d="M131.916 91.4545V130H127.249V91.4545H131.916ZM105.868 130L118.365 109.899L106.922 91.4545H112.568L122.581 108.544H136.659L146.672 91.4545H152.318L140.8 109.974L153.297 130H147.952L137.487 112.911H121.678L111.138 130H105.868ZM159.414 91.4545H164.006V121.794H164.382L185.462 91.4545H189.979V130H185.311V99.7358H184.935L163.931 130H159.414V91.4545ZM211.666 130.527C209.181 130.527 206.967 130.1 205.022 129.247C203.089 128.394 201.552 127.208 200.411 125.69C199.281 124.159 198.667 122.384 198.566 120.364H203.309C203.409 121.606 203.836 122.679 204.589 123.582C205.342 124.473 206.327 125.163 207.544 125.652C208.761 126.142 210.11 126.386 211.59 126.386C213.247 126.386 214.715 126.098 215.994 125.521C217.274 124.943 218.278 124.14 219.006 123.112C219.734 122.083 220.097 120.891 220.097 119.536C220.097 118.118 219.746 116.869 219.043 115.79C218.341 114.699 217.312 113.845 215.957 113.23C214.602 112.616 212.945 112.308 210.988 112.308H207.901V108.168H210.988C212.519 108.168 213.861 107.892 215.016 107.339C216.183 106.787 217.092 106.009 217.745 105.006C218.41 104.002 218.742 102.822 218.742 101.467C218.742 100.162 218.454 99.0269 217.877 98.0607C217.299 97.0946 216.484 96.3417 215.43 95.8022C214.388 95.2627 213.159 94.9929 211.741 94.9929C210.411 94.9929 209.156 95.2376 207.977 95.7269C206.81 96.2037 205.856 96.9001 205.116 97.8161C204.376 98.7195 203.974 99.8111 203.911 101.091H199.394C199.47 99.0708 200.078 97.3016 201.22 95.7834C202.362 94.2526 203.855 93.0606 205.699 92.2074C207.556 91.3542 209.595 90.9276 211.816 90.9276C214.2 90.9276 216.245 91.4106 217.952 92.3768C219.658 93.3304 220.969 94.5914 221.885 96.1598C222.801 97.7282 223.259 99.4221 223.259 101.241C223.259 103.412 222.688 105.263 221.547 106.794C220.417 108.324 218.88 109.385 216.935 109.974V110.276C219.37 110.677 221.271 111.712 222.638 113.381C224.006 115.037 224.69 117.089 224.69 119.536C224.69 121.631 224.119 123.513 222.977 125.182C221.848 126.838 220.304 128.143 218.347 129.097C216.39 130.05 214.162 130.527 211.666 130.527ZM233.065 130V91.4545H237.733V108.619H258.285V91.4545H262.953V130H258.285V112.76H237.733V130H233.065ZM272.297 130V91.4545H295.56V95.5952H276.965V108.619H294.356V112.76H276.965V125.859H295.861V130H272.297ZM303.973 91.4545H308.566V121.794H308.942L330.022 91.4545H334.539V130H329.871V99.7358H329.495L308.49 130H303.973V91.4545ZM322.945 81.8182H327.085C327.085 83.8509 326.383 85.5134 324.978 86.8058C323.572 88.0981 321.665 88.7443 319.256 88.7443C316.885 88.7443 314.996 88.0981 313.591 86.8058C312.198 85.5134 311.502 83.8509 311.502 81.8182H315.642C315.642 82.7969 315.912 83.6564 316.452 84.3967C317.004 85.137 317.938 85.5071 319.256 85.5071C320.573 85.5071 321.514 85.137 322.079 84.3967C322.656 83.6564 322.945 82.7969 322.945 81.8182Z" fill="black"/>
<mask id="path-3-outside-1_209_22" maskUnits="userSpaceOnUse" x="295" y="25" width="42" height="42" fill="black">
<rect fill="white" x="295" y="25" width="42" height="42"/>
<path fill-rule="evenodd" clip-rule="evenodd" d="M311 51L311 66H321V51H336V41H321V26H311L311 41H296V51H311Z"/>
</mask>
<path fill-rule="evenodd" clip-rule="evenodd" d="M311 51L311 66H321V51H336V41H321V26H311L311 41H296V51H311Z" fill="#AD7EE7"/>
<path fill-rule="evenodd" clip-rule="evenodd" d="M311 51L311 66H321V51H336V41H321V26H311L311 41H296V51H311Z" fill="#AD7EE7"/>
<path fill-rule="evenodd" clip-rule="evenodd" d="M311 51L311 66H321V51H336V41H321V26H311L311 41H296V51H311Z" fill="#AD7EE7"/>
<path d="M311 66L310 66L310 67H311V66ZM311 51L312 51L312 50H311V51ZM321 66V67H322V66H321ZM321 51V50H320V51H321ZM336 51V52H337V51H336ZM336 41H337V40H336V41ZM321 41H320V42H321V41ZM321 26H322V25H321V26ZM311 26V25H310L310 26L311 26ZM311 41V42H312L312 41L311 41ZM296 41V40H295V41H296ZM296 51H295V52H296V51ZM312 66L312 51L310 51L310 66L312 66ZM321 65H311V67H321V65ZM320 51V66H322V51H320ZM336 50H321V52H336V50ZM335 41V51H337V41H335ZM321 42H336V40H321V42ZM320 26V41H322V26H320ZM311 27H321V25H311V27ZM312 41L312 26L310 26L310 41L312 41ZM296 42H311V40H296V42ZM297 51V41H295V51H297ZM311 50H296V52H311V50Z" fill="black" mask="url(#path-3-outside-1_209_22)"/>
<mask id="path-5-outside-2_209_22" maskUnits="userSpaceOnUse" x="17" y="88" width="42" height="43" fill="black">
<rect fill="white" x="17" y="88" width="42" height="43"/>
<path fill-rule="evenodd" clip-rule="evenodd" d="M37.9991 98.8671H38.0009C38.072 93.4055 42.5215 89 48 89C53.5228 89 58 93.4772 58 99C58 101.288 57.2318 103.396 55.9394 105.081L38 129L20.0607 105.081C18.7682 103.396 18 101.288 18 99C18 93.4772 22.4772 89 28 89C33.4785 89 37.928 93.4055 37.9991 98.8671Z"/>
</mask>
<path fill-rule="evenodd" clip-rule="evenodd" d="M37.9991 98.8671H38.0009C38.072 93.4055 42.5215 89 48 89C53.5228 89 58 93.4772 58 99C58 101.288 57.2318 103.396 55.9394 105.081L38 129L20.0607 105.081C18.7682 103.396 18 101.288 18 99C18 93.4772 22.4772 89 28 89C33.4785 89 37.928 93.4055 37.9991 98.8671Z" fill="#BCE3FD"/>
<path d="M37.9991 98.8671L36.9992 98.8801L37.0121 99.8671H37.9991V98.8671ZM38.0009 98.8671V99.8671H38.9879L39.0008 98.8801L38.0009 98.8671ZM55.9394 105.081L55.1459 104.472L55.1394 104.481L55.9394 105.081ZM38 129L37.2 129.6L38 130.667L38.8 129.6L38 129ZM20.0607 105.081L20.8607 104.481L20.8541 104.472L20.0607 105.081ZM37.9991 99.8671H38.0009V97.8671H37.9991V99.8671ZM39.0008 98.8801C39.0648 93.965 43.0695 90 48 90V88C41.9736 88 37.0792 92.846 37.001 98.854L39.0008 98.8801ZM48 90C52.9706 90 57 94.0294 57 99H59C59 92.9249 54.0751 88 48 88V90ZM57 99C57 101.06 56.3091 102.956 55.1459 104.472L56.7328 105.689C58.1545 103.836 59 101.515 59 99H57ZM55.1394 104.481L37.2 128.4L38.8 129.6L56.7394 105.681L55.1394 104.481ZM38.8 128.4L20.8607 104.481L19.2607 105.681L37.2 129.6L38.8 128.4ZM20.8541 104.472C19.6909 102.956 19 101.06 19 99H17C17 101.515 17.8455 103.836 19.2672 105.69L20.8541 104.472ZM19 99C19 94.0294 23.0294 90 28 90V88C21.9249 88 17 92.9249 17 99H19ZM28 90C32.9305 90 36.9352 93.965 36.9992 98.8801L38.999 98.854C38.9208 92.846 34.0264 88 28 88V90Z" fill="black" mask="url(#path-5-outside-2_209_22)"/>
</svg>
